<?xml version="1.0" encoding="utf-8"?>
<svg viewBox="199.468 148.1 196.763 112.455" xmlns="http://www.w3.org/2000/svg">
  <defs>
    <style type="text/css">
	.st0{fill:#006237;}
	.st1{fill:#B91F27;}
	.st2{fill:#6A6D71;}
</style>
  </defs>
  <g>
    <path class="st1" d="M 330 219.8 C 330 237.6 315.6 251.9 297.9 251.9 C 280.2 251.9 265.8 237.5 265.8 219.8 C 265.8 202 280.2 187.7 297.9 187.7 C 315.6 187.7 330 202.1 330 219.8"/>
    <path class="st0" d="M 339.5 148.1 C 314.5 152.5 295.2 160.4 295.2 160.4 C 256.2 176.9 228.7 205.6 231 229.8 C 232.5 245.6 241 256.1 261.7 259.8 C 224.5 263.7 201.7 252.3 199.6 230 C 197 203.1 233.2 170.2 281.2 155.1 C 281.2 155.1 290.3 152.3 302.3 150.4 C 312.7 148.9 325 148.1 339.5 148.1"/>
    <path class="st0" d="M 256.2 148.1 C 281.2 152.5 300.5 160.4 300.5 160.4 C 339.5 176.9 367 205.6 364.7 229.8 C 363.2 245.6 354.7 256.1 334 259.8 C 371.2 263.7 394 252.3 396.1 230 C 398.7 203.1 362.5 170.2 314.5 155.1 C 314.5 155.1 305.4 152.3 293.4 150.4 C 283 148.9 270.7 148.1 256.2 148.1"/>
  </g>
</svg>